<svg xmlns="http://www.w3.org/2000/svg" width="220" height="56" viewBox="0 0 220 56" fill="none">
  <rect x="1" y="1" width="54" height="54" rx="16" fill="url(#g1)" stroke="rgba(255,255,255,0.32)"/>
  <path d="M18 17h14.2c5.4 0 8.7 2.8 8.7 7.1 0 2.7-1.3 4.9-3.7 6.1 3.2 1 5 3.5 5 7 0 5-3.8 8.3-9.8 8.3H18V17Zm13.1 11.2c2.3 0 3.8-1.2 3.8-3.1 0-1.9-1.5-3-3.8-3h-6.8v6.1h6.8Zm1.1 12.2c2.6 0 4.1-1.3 4.1-3.5s-1.5-3.5-4.1-3.5h-7.9v7h7.9Z" fill="#06101e"/>
  <path d="M71 20.5h15.8c7.1 0 11.4 3.4 11.4 9.1 0 3.4-1.6 6-4.7 7.5l6.1 10.4h-7.3l-5.1-9.1H77.8v9.1H71v-27Zm15.3 12.7c3.1 0 4.9-1.3 4.9-3.6s-1.8-3.5-4.9-3.5h-8.5v7.1h8.5Z" fill="#eef4ff"/>
  <path d="M101.8 34c0-8.2 6.3-14.2 14.8-14.2 8.4 0 14.7 6 14.7 14.2s-6.3 14.2-14.7 14.2c-8.5 0-14.8-6-14.8-14.2Zm22.5 0c0-4.8-3.3-8.1-7.7-8.1-4.5 0-7.8 3.3-7.8 8.1s3.3 8.1 7.8 8.1c4.4 0 7.7-3.3 7.7-8.1Z" fill="#eef4ff"/>
  <path d="M137 20.5h6.8v21h16.1v6H137v-27Zm28.4 0h6.8v27h-6.8v-27Zm14.2 0h6.8v21h16.1v6h-22.9v-27Z" fill="#eef4ff"/>
  <circle cx="207" cy="18" r="4" fill="#62f5ff"/>
  <defs><linearGradient id="g1" x1="4" y1="4" x2="55" y2="55" gradientUnits="userSpaceOnUse"><stop stop-color="#62f5ff"/><stop offset="1" stop-color="#8b5cf6"/></linearGradient></defs>
</svg>
